<svg width="16" height="16" viewBox="0 0 16 16" fill="none" xmlns="http://www.w3.org/2000/svg">
<path d="M8.6223 9.04C8.43961 9.15257 8.22126 9.20872 8.00007 9.2C7.77889 9.20872 7.56054 9.15257 7.37785 9.04L2.66675 6.76001V10.8C2.66675 11.1183 2.80722 11.4235 3.05727 11.6485C3.30732 11.8736 3.64646 12 4.00008 12H12.0001C12.3537 12 12.6928 11.8736 12.9429 11.6485C13.1929 11.4235 13.3334 11.1183 13.3334 10.8V6.76001L8.6223 9.04Z" fill="white"/>
<path d="M12.0001 4H4.00009C3.64646 4 3.30733 4.12643 3.05728 4.35147C2.80723 4.57651 2.66675 4.88174 2.66675 5.2V5.6C2.66633 5.67213 2.68655 5.74314 2.72547 5.80619C2.7644 5.86925 2.82071 5.92222 2.88898 5.96L7.77786 8.35999C7.8461 8.39233 7.92327 8.40622 8.00008 8.39999C8.07689 8.40622 8.15406 8.39233 8.2223 8.35999L13.1112 5.96C13.1795 5.92222 13.2358 5.86925 13.2747 5.80619C13.3136 5.74314 13.3338 5.67213 13.3334 5.6V5.2C13.3334 4.88174 13.1929 4.57651 12.9429 4.35147C12.6928 4.12643 12.3537 4 12.0001 4Z" fill="white"/>
</svg>
