<svg width="28" height="28" viewBox="0 0 28 28" fill="none" xmlns="http://www.w3.org/2000/svg">
<path fill-rule="evenodd" clip-rule="evenodd" d="M14.0001 24.7937C19.9613 24.7937 24.7937 19.9612 24.7937 14C24.7937 8.03883 19.9613 3.20635 14.0001 3.20635C8.03891 3.20635 3.20643 8.03883 3.20643 14C3.20643 19.9612 8.03891 24.7937 14.0001 24.7937ZM27.3334 14C27.3334 21.3638 21.3639 27.3333 14.0001 27.3333C6.63629 27.3333 0.666748 21.3638 0.666748 14C0.666748 6.6362 6.63629 0.666667 14.0001 0.666667C21.3639 0.666667 27.3334 6.6362 27.3334 14Z" fill="white"/>
<path d="M8.07732 15.9746C7.98207 15.1762 8.55205 14.4519 9.35039 14.3566C9.43641 14.3481 9.43641 14.3481 9.52298 14.3463H18.477C18.5635 14.3481 18.5635 14.3481 18.6495 14.3566C19.4478 14.4519 20.0178 15.1762 19.9226 15.9746C19.5644 18.9765 17.0509 21.3334 13.9999 21.3334C10.949 21.3334 8.43545 18.9765 8.07732 15.9746Z" fill="white"/>
<path d="M17.2446 11.2933C16.9953 11.6125 16.5344 11.669 16.2153 11.4197C15.8961 11.1703 15.8396 10.7094 16.0889 10.3903C16.6321 9.69516 17.3601 9.33749 18.1954 9.35884C18.9846 9.36173 19.6629 9.72301 20.1806 10.3937C20.4281 10.7144 20.3688 11.1749 20.0482 11.4223C19.7276 11.6698 19.267 11.6105 19.0196 11.2899C18.7689 10.9651 18.5089 10.8267 18.1741 10.8253C17.796 10.8157 17.5068 10.9578 17.2446 11.2933Z" fill="white"/>
<path d="M9.24454 11.2933C8.99518 11.6125 8.53432 11.669 8.21518 11.4197C7.89604 11.1703 7.83947 10.7094 8.08883 10.3903C8.63199 9.69516 9.36003 9.33749 10.1953 9.35884C10.9845 9.36173 11.6628 9.72301 12.1805 10.3937C12.428 10.7144 12.3687 11.1749 12.0481 11.4223C11.7275 11.6698 11.267 11.6105 11.0195 11.2899C10.7688 10.9651 10.5089 10.8267 10.174 10.8253C9.79595 10.8157 9.50673 10.9578 9.24454 11.2933Z" fill="white"/>
</svg>
