<svg width="28" height="28" viewBox="0 0 28 28" fill="none" xmlns="http://www.w3.org/2000/svg">
<rect width="28" height="28" fill=""/>
<g clip-path="url(#clip0_19_1347)">
<rect width="1339" height="1594" transform="translate(-343 -1113)" fill=""/>
<rect width="1339" height="1349" transform="translate(-343 -868)" fill=""/>
<rect x="-242.5" y="-623.5" width="356" height="911" rx="4.5" stroke="#7B61FF" stroke-dasharray="10 5"/>
<path fill-rule="evenodd" clip-rule="evenodd" d="M14.0003 24.7936C19.9615 24.7936 24.794 19.9612 24.794 14C24.794 8.03882 19.9615 3.20634 14.0003 3.20634C8.03916 3.20634 3.20667 8.03882 3.20667 14C3.20667 19.9612 8.03916 24.7936 14.0003 24.7936ZM27.3337 14C27.3337 21.3638 21.3641 27.3333 14.0003 27.3333C6.63653 27.3333 0.666992 21.3638 0.666992 14C0.666992 6.63619 6.63653 0.666656 14.0003 0.666656C21.3641 0.666656 27.3337 6.63619 27.3337 14Z" fill="#1F2429"/>
<path d="M8.07756 15.9746C7.98232 15.1762 8.55229 14.4518 9.35063 14.3566C9.43666 14.3481 9.43666 14.3481 9.52322 14.3463H18.4773C18.5637 14.3481 18.5637 14.3481 18.6497 14.3566C19.4481 14.4518 20.018 15.1762 19.9228 15.9746C19.5647 18.9765 17.0511 21.3334 14.0002 21.3334C10.9492 21.3334 8.43569 18.9765 8.07756 15.9746Z" fill="#1F2429"/>
<path d="M17.2449 11.2933C16.9955 11.6125 16.5346 11.669 16.2155 11.4197C15.8964 11.1703 15.8398 10.7094 16.0892 10.3903C16.6323 9.69515 17.3604 9.33748 18.1956 9.35883C18.9849 9.36172 19.6632 9.723 20.1809 10.3937C20.4283 10.7143 20.369 11.1749 20.0484 11.4223C19.7278 11.6698 19.2673 11.6105 19.0198 11.2899C18.7692 10.9651 18.5092 10.8267 18.1743 10.8253C17.7963 10.8157 17.5071 10.9578 17.2449 11.2933Z" fill="#1F2429"/>
<path d="M9.24479 11.2933C8.99542 11.6125 8.53456 11.669 8.21542 11.4197C7.89628 11.1703 7.83972 10.7094 8.08908 10.3903C8.63223 9.69515 9.36028 9.33748 10.1955 9.35883C10.9848 9.36172 11.6631 9.723 12.1808 10.3937C12.4283 10.7143 12.369 11.1749 12.0483 11.4223C11.7277 11.6698 11.2672 11.6105 11.0197 11.2899C10.7691 10.9651 10.5091 10.8267 10.1742 10.8253C9.7962 10.8157 9.50698 10.9578 9.24479 11.2933Z" fill="#1F2429"/>
</g>
<defs>
<clipPath id="clip0_19_1347">
<rect width="1339" height="1594" fill="" transform="translate(-343 -1113)"/>
</clipPath>
</defs>
</svg>
